Coordinates
version=1
nRows=49
nColumns=12
inDegrees=yes

Units are S.I. units (second, meters, Newtons, ...)
Angles are in degrees

endheader
time	SC_y	SC_z	SC_x	AC_y	AC_z	AC_x	GH_y	GH_z	GH_yy	EL_x	PS_y
       0.0              -14.53           12.3          10.16          65.19          8.026         -4.427         -116.5          62.01         -56.36          42.37          43.69
   0.01975              -14.53           12.3          10.17          65.19          8.026         -4.424         -116.4           62.0         -56.33          42.37           43.7
    0.0395              -14.53           12.3          10.19          65.19          8.025         -4.421         -116.4           62.0         -56.29          42.38          43.71
   0.05926              -14.53           12.3           10.2          65.19          8.025         -4.417         -116.4          61.99         -56.26           42.4          43.72
   0.07901              -14.53           12.3          10.21          65.19          8.025         -4.414         -116.4          61.98         -56.22          42.41          43.74
   0.09876              -14.53           12.3          10.22          65.18          8.024          -4.41         -116.3          61.98         -56.18          42.42          43.75
    0.1185              -14.53           12.3          10.24          65.18          8.024         -4.406         -116.3          61.97         -56.13          42.43          43.76
    0.1383              -14.53          12.29          10.25          65.18          8.024         -4.402         -116.3          61.96         -56.09          42.45          43.78
     0.158              -14.53          12.29          10.27          65.18          8.023         -4.397         -116.2          61.95         -56.04          42.46          43.79
    0.1778              -14.53          12.29          10.29          65.17          8.023         -4.392         -116.2          61.94         -55.98          42.48          43.81
    0.1975              -14.54          12.29          10.31          65.17          8.022         -4.387         -116.2          61.93         -55.92          42.49          43.83
    0.2173              -14.54          12.29          10.33          65.17          8.022         -4.382         -116.1          61.92         -55.86          42.51          43.85
     0.237              -14.54          12.28          10.35          65.16          8.021         -4.375         -116.1           61.9         -55.79          42.53          43.87
    0.2568              -14.54          12.28          10.37          65.16           8.02         -4.369         -116.0          61.89         -55.72          42.55          43.89
    0.2765              -14.54          12.28           10.4          65.16           8.02         -4.362         -116.0          61.87         -55.64          42.58          43.92
    0.2963              -14.54          12.28          10.43          65.15          8.019         -4.354         -115.9          61.86         -55.55           42.6          43.95
     0.316              -14.54          12.27          10.46          65.15          8.018         -4.346         -115.8          61.84         -55.46          42.63          43.98
    0.3358              -14.54          12.27          10.49          65.14          8.018         -4.337         -115.8          61.82         -55.36          42.66          44.01
    0.3555              -14.54          12.27          10.53          65.14          8.017         -4.327         -115.7           61.8         -55.25          42.69          44.04
    0.3753              -14.54          12.26          10.56          65.13          8.016         -4.316         -115.6          61.78         -55.13          42.73          44.08
     0.395              -14.54          12.26          10.61          65.12          8.014         -4.304         -115.5          61.75         -54.99          42.76          44.12
    0.4148              -14.54          12.25          10.66          65.12          8.013         -4.291         -115.4          61.72         -54.85          42.81          44.17
    0.4345              -14.54          12.25          10.71          65.11          8.012         -4.276         -115.3          61.69         -54.68          42.86          44.22
    0.4543              -14.55          12.24          10.77           65.1           8.01          -4.26         -115.2          61.66          -54.5          42.91          44.28
     0.474              -14.55          12.23          10.83          65.09          8.009         -4.242         -115.0          61.62          -54.3          42.97          44.34
    0.4938              -14.55          12.23           10.9          65.08          8.007         -4.222         -114.9          61.58         -54.08          43.03          44.41
    0.5135              -14.55          12.22          10.99          65.07          8.005           -4.2         -114.7          61.53         -53.83           43.1          44.49
    0.5333              -14.55          12.21          11.08          65.05          8.003         -4.174         -114.5          61.48         -53.55          43.19          44.58
     0.553              -14.56           12.2          11.18          65.04            8.0         -4.146         -114.3          61.42         -53.23          43.28          44.68
    0.5728              -14.56          12.18           11.3          65.02          7.997         -4.114         -114.0          61.35         -52.87          43.38          44.79
    0.5926              -14.56          12.17          11.43           65.0          7.994         -4.077         -113.8          61.27         -52.46           43.5          44.92
    0.6123              -14.57          12.15          11.58          64.98           7.99         -4.034         -113.4          61.18         -51.99          43.64          45.07
    0.6321              -14.57          12.14          11.76          64.95          7.985         -3.986         -113.1          61.08         -51.44           43.8          45.24
    0.6518              -14.57          12.11          11.97          64.92           7.98         -3.929         -112.6          60.96         -50.81          43.99          45.44
    0.6716              -14.58          12.09          12.21          64.88          7.974         -3.862         -112.1          60.82         -50.07           44.2          45.67
    0.6913              -14.59          12.06          12.49          64.84          7.967         -3.784         -111.5          60.65         -49.19          44.46          45.95
    0.7111              -14.59          12.02          12.83          64.79          7.958         -3.691         -110.8          60.46         -48.16          44.76          46.28
    0.7308               -14.6          11.98          13.23          64.72          7.948         -3.579         -109.9          60.22         -46.91          45.13          46.67
    0.7506              -14.62          11.93          13.72          64.65          7.935         -3.444         -108.9          59.94          -45.4          45.57          47.14
    0.7703              -14.63          11.87          14.32          64.56           7.92         -3.279         -107.6          59.59         -43.56           46.1          47.72
    0.7901              -14.65          11.79          15.06          64.44          7.901         -3.076         -106.0          59.16         -41.29          46.77          48.44
    0.8098              -14.67          11.69          15.98           64.3          7.878         -2.822         -104.0          58.62         -38.46          47.59          49.33
    0.8296               -14.7          11.57          17.13          64.13          7.849         -2.502         -101.5          57.95          -34.9          48.63          50.46
    0.8493              -14.73          11.41          18.61           63.9          7.811         -2.096          -98.4          57.09         -30.36          49.96          51.88
    0.8691              -14.78          11.22          20.49          63.61          7.763         -1.575         -94.36          55.99         -24.56          51.65          53.71
    0.8888              -14.83          10.96          22.91          63.24          7.702        -0.9074         -89.19          54.59         -17.11          53.83          56.06
    0.9086              -14.91          10.64           26.0          62.77          7.623       -0.05449         -82.57          52.79         -7.596          56.61          59.06
    0.9283               -15.0          10.23          29.88          62.18          7.525          1.018         -74.26          50.52          4.367           60.1          62.83
    0.9481              -15.11          9.728          34.61          61.45          7.404          2.325         -64.12          47.77          18.94          64.36          67.42
